<svg id="eGSDsXgW5F21" xmlns="http://www.w3.org/2000/svg" xmlns:xlink="http://www.w3.org/1999/xlink" viewBox="0 0 16 18" shape-rendering="geometricPrecision" text-rendering="geometricPrecision"><defs><linearGradient id="eGSDsXgW5F22-fill" x1="0" y1="0.5" x2="1.008668" y2="0.500846" spreadMethod="pad" gradientUnits="objectBoundingBox" gradientTransform="translate(0 0)"><stop id="eGSDsXgW5F22-fill-0" offset="0%" stop-color="#a4c639"/><stop id="eGSDsXgW5F22-fill-1" offset="100%" stop-color="#cdf64e"/></linearGradient></defs><path d="M1.168,5.86h-.048c-.614,0-1.115.482-1.115,1.07v4.665c0,.59.5,1.071,1.115,1.071h.049c.614,0,1.115-.482,1.115-1.071v-4.665c0-.589-.502-1.072-1.116-1.072Zm1.65,7.535c0,.541.46.983,1.025.983h1.095v2.519c0,.591.503,1.073,1.116,1.073h.048c.615,0,1.116-.482,1.116-1.073v-2.52h1.532v2.52c0,.591.504,1.073,1.117,1.073h.047c.615,0,1.116-.482,1.116-1.073v-2.52h1.096c.564,0,1.025-.44,1.025-.982v-7.365h-10.333v7.364Zm7.739-11.83l.87-1.29c.026888-.039371.036336-.088092.026114-.134659s-.039208-.086852-.080114-.111341c-.085407-.054464-.198611-.03147-.256.052l-.902,1.335C9.504268,1.138939,8.747823,0.997826,7.985,1c-.763478-.002235-1.520589.138876-2.232.416l-.9-1.336c-.05868-.08245-.171688-.104436-.257-.05-.04107.024321-.070266.064529-.080681.11111s-.001121.095395.025681.13489l.871,1.29c-1.57.739-2.628,2.131-2.628,3.729c0,.098.006.195.015.29h10.371c.009-.095.014-.192.014-.29c0-1.598-1.059-2.99-2.628-3.73ZM5.58,3.875c-.13004.002947-.255895-.046036-.349729-.136116s-.14791-.213832-.150271-.343884c0-.265.224-.478.5-.478.277,0,.5.213.5.478-.002361.130052-.056438.253804-.150271.343884s-.219689.139063-.349729.136116Zm4.809,0c-.13004.002947-.255895-.046036-.349729-.136116s-.14791-.213832-.150271-.343884c0-.265.224-.478.5-.478s.498.213.498.478c-.0021.129784-.055819.253384-.149276.343463s-.21895.139214-.348724.136537ZM14.847,5.86h-.046c-.614,0-1.117.482-1.117,1.07v4.665c0,.59.503,1.071,1.117,1.071h.047c.615,0,1.115-.482,1.115-1.071v-4.665c0-.589-.501-1.072-1.116-1.072Z" transform="translate(.016 0)" fill="url(#eGSDsXgW5F22-fill)"/></svg>
