<svg id="eMwbqFJt4Tx1" xmlns="http://www.w3.org/2000/svg" xmlns:xlink="http://www.w3.org/1999/xlink" viewBox="0 0 11 18" shape-rendering="geometricPrecision" text-rendering="geometricPrecision"><defs><linearGradient id="eMwbqFJt4Tx2-fill" x1="0" y1="0.5" x2="1" y2="0.5" spreadMethod="pad" gradientUnits="objectBoundingBox" gradientTransform="translate(0 0)"><stop id="eMwbqFJt4Tx2-fill-0" offset="0%" stop-color="#373333"/><stop id="eMwbqFJt4Tx2-fill-1" offset="51%" stop-color="#828282"/><stop id="eMwbqFJt4Tx2-fill-2" offset="100%" stop-color="#4e474a"/></linearGradient></defs><path d="M9.538,0h-7.887c-.755,0-1.364.587-1.364,1.31v15.368c0,.723.61,1.31,1.364,1.31h7.887c.754,0,1.364-.587,1.364-1.31v-15.368c0-.723-.61-1.31-1.364-1.31Zm-5.89.796h3.894c.098,0,.178.14.178.315c0,.174-.08.316-.178.316h-3.894c-.099,0-.177-.142-.177-.316s.078-.315.177-.315ZM5.595,16.694c-.48,0-.87-.375-.87-.836c0-.462.39-.835.87-.835s.87.373.87.835c0,.461-.39.836-.87.836ZM9.88,13.83h-8.57v-11.62h8.57v11.62Z" fill="url(#eMwbqFJt4Tx2-fill)"/></svg>
