<svg id="eopRJbmu3q41" xmlns="http://www.w3.org/2000/svg" xmlns:xlink="http://www.w3.org/1999/xlink" viewBox="0 0 15 18" shape-rendering="geometricPrecision" text-rendering="geometricPrecision"><defs><linearGradient id="eopRJbmu3q42-fill" x1="0.5" y1="0" x2="0.5" y2="1" spreadMethod="pad" gradientUnits="objectBoundingBox" gradientTransform="translate(0 0)"><stop id="eopRJbmu3q42-fill-0" offset="0%" stop-color="#f8e9e9"/><stop id="eopRJbmu3q42-fill-1" offset="100%" stop-color="#628484"/></linearGradient></defs><path d="M10.869,0h.127c.102,1.26-.379,2.202-.963,2.884-.574.677-1.359,1.334-2.629,1.234-.084-1.242.397-2.114.98-2.794C8.927,0.69,9.919,0.126,10.87,0Zm3.756,13.196v.036c-.344485,1.038032-.848524,2.016084-1.494,2.899-.57.789-1.267,1.85-2.513,1.85-1.077,0-1.792-.696-2.896-.715-1.167-.02-1.81.583-2.877.734h-.364c-.783-.114-1.416-.74-1.877-1.302C1.066235,14.838924,0.154894,12.541673,0,10.134v-.808c.083-1.969,1.033-3.57,2.295-4.345.667-.413,1.583-.764,2.603-.607.437.068.884.219,1.275.368.371.144.835.398,1.275.385.298-.009.594-.165.894-.275.88-.32,1.74-.687,2.877-.514c1.365.207,2.334.818,2.933,1.76-1.155.74-2.068,1.855-1.912,3.76.138,1.73,1.137,2.742,2.385,3.338Z" fill="url(#eopRJbmu3q42-fill)"/></svg>
