<svg id="eB5SsWZb3LE1" xmlns="http://www.w3.org/2000/svg" xmlns:xlink="http://www.w3.org/1999/xlink" viewBox="0 0 21 16" shape-rendering="geometricPrecision" text-rendering="geometricPrecision"><path d="M8,0h5c4.418278,0,8,3.581722,8,8s-3.581722,8-8,8h-5c-4.418278,0-8-3.581722-8-8s3.581722-8,8-8ZM7.865,1.935C4.515393,1.935,1.8,4.650393,1.8,8s2.715393,6.065,6.065,6.065h5.12c3.349607,0,6.065-2.715393,6.065-6.065s-2.715393-6.065-6.065-6.065h-5.12ZM6.535,4.239h2.401l3.199,5.175v-5.174h2.346v7.495h-2.301L8.864,6.537v5.201h-2.334l.005-7.499Z" fill="#f00" fill-rule="evenodd"/></svg>
