<svg id="eA70n6zhCIX1" xmlns="http://www.w3.org/2000/svg" xmlns:xlink="http://www.w3.org/1999/xlink" viewBox="0 0 13 16" shape-rendering="geometricPrecision" text-rendering="geometricPrecision"><g><path d="M7.468,15.993c3.056,0,5.532-2.335,5.532-5.212c0-2.883-2.476-5.218-5.532-5.218l-1.94.01c-.148916.002797-.272179-.115107-.276-.264c0-.146.124-.265.277-.265l7.454.001.003-2.212h-7.459c-1.442,0-2.615,1.108-2.615,2.47c0,1.363,1.173,2.466,2.615,2.466l1.949.025c1.75,0,3.167,1.335,3.167,2.983s-1.416,2.987-3.167,2.987h-7.473L0,16l7.468-.007Z" fill="#1c179b"/><path d="M0.006,13.167h7.38c1.428,0,2.583-1.106,2.583-2.472c0-1.364-1.155-2.468-2.584-2.468l-1.924-.02c-1.726,0-3.126-1.34-3.126-2.993c0-1.65,1.4-2.989,3.126-2.989l7.366-.001L12.824,0h-7.362C2.448,0,0,2.336,0,5.22c0,2.883,2.448,5.22,5.462,5.22l1.905.003c.145,0,.267.113.267.257c0,.14-.122.253-.267.253l-7.364.006.003,2.208" fill="#1c179b"/></g></svg>
