<svg id="eVW16ioj3gJ1" xmlns="http://www.w3.org/2000/svg" xmlns:xlink="http://www.w3.org/1999/xlink" viewBox="0 0 16 16" shape-rendering="geometricPrecision" text-rendering="geometricPrecision"><defs><radialGradient id="eVW16ioj3gJ2-fill" cx="0" cy="0" r="0.5" spreadMethod="pad" gradientUnits="objectBoundingBox" gradientTransform="translate(0.5 0.5)"><stop id="eVW16ioj3gJ2-fill-0" offset="0%" stop-color="#fff"/><stop id="eVW16ioj3gJ2-fill-1" offset="100%" stop-color="#e0ebf1"/></radialGradient></defs><path d="M15.98,7.467c-.266049-3.997448-3.44866-7.18134-7.446-7.449v-.018h-1.067v.018c-3.998317.266648-7.182352,3.450683-7.449,7.449h-.018v1.066h.018c.266701,3.998121,3.450844,7.181836,7.449,7.448v.019h1.066v-.02c3.997605-.26616,7.181303-3.44943,7.448-7.447h.019v-1.066h-.02ZM5.009,1.744c-.515.685-.943,1.543-1.254,2.523h-1.599c.698061-1.089413,1.685583-1.963017,2.852-2.523Zm-3.41,3.59h1.875c-.143.673-.234,1.39-.262,2.133h-2.125c.056-.751.234-1.47.51-2.134Zm-.511,3.2h2.122c.028.743.12,1.459.262,2.133h-1.874c-.28352-.679376-.456052-1.399891-.511-2.134Zm1.069,3.2h1.597c.311.979.739,1.837,1.255,2.522-1.166653-.559628-2.154263-1.433309-2.852-2.523Zm5.31,3.131c-1.096-.293-2.04-1.47-2.613-3.132h2.614v3.132Zm0-4.198h-2.912c-.156478-.701528-.249189-1.415771-.277-2.134h3.19v2.134Zm0-3.2h-3.189c.031-.751.126-1.47.277-2.134h2.913v2.134Zm0-3.2h-2.613c.573-1.661,1.517-2.839,2.614-3.131v3.13Zm6.378,0h-1.595c-.313-.98-.74-1.838-1.257-2.523c1.166211.560293,2.153657,1.433829,2.852,2.523ZM8.535,1.136c1.095.292,2.04,1.47,2.613,3.13h-2.615v-3.13Zm0,4.197h2.911c.152.665.245,1.383.278,2.134h-3.19v-2.134Zm0,3.2h3.189c-.031.751-.126,1.47-.278,2.134h-2.913v-2.134Zm0,6.332v-3.132h2.613c-.573,1.661-1.518,2.839-2.614,3.132Zm2.458-.609c.515-.686.944-1.543,1.257-2.523h1.595c-.69802,1.089448-1.685553,1.963061-2.852,2.523Zm3.41-3.59h-1.875c.143-.673.234-1.39.262-2.133h2.123c-.054095.734137-.226309,1.454734-.51,2.134Zm-1.613-3.2c-.026826-.717132-.114474-1.430693-.262-2.133h1.875c.277.665.455,1.383.511,2.134h-2.124Z" fill="url(#eVW16ioj3gJ2-fill)"/></svg>
