<svg id="epkHqX8WN371" xmlns="http://www.w3.org/2000/svg" xmlns:xlink="http://www.w3.org/1999/xlink" viewBox="0 0 16 16" shape-rendering="geometricPrecision" text-rendering="geometricPrecision"><path d="M3.564,1.357l-.022.02c.046-.048.11-.1.154-.128C4.948,0.435,6.396,0,8,0c1.502,0,2.908.415,4.11,1.136.086.052.324.215.446.363C11.4,0.222,7.993,2.962,7.993,2.962c-1.177-.908-2.26-1.526-3.067-1.746-.674-.185-1.14-.03-1.362.141ZM13.869,2.565c-.035-.04-.074-.076-.109-.116-.293-.322-.653-.4-.978-.378-.295.092-1.66.584-3.342,2.172c0,0,1.894,1.841,3.053,3.723c1.159,1.883,1.852,3.362,1.426,5.415C15.260629,11.909947,16.003007,9.989969,16,7.999c.00283-2.015536-.758278-3.957256-2.13-5.434ZM10.98,8.77c-.738152-.82432-1.500827-1.626346-2.287-2.405-.231208-.230826-.464551-.459502-.7-.686l-.848.854c-.614.62-1.411,1.43-1.853,1.902-.787.84-3.043,3.479-3.17,4.958c0,0-.502-1.174.6-3.88.72-1.769,2.893-4.425,3.801-5.29c0,0-.83-.913-1.87-1.544l-.007-.002c0,0-.011-.009-.03-.02-.5-.3-1.047-.53-1.573-.56-.335192.032643-.647158.185783-.878.431-2.936961,3.253707-2.708801,8.26492.511677,11.23828s8.23394,2.801562,11.243323-.38528c0-.002-.169-1.056-1.245-2.57-.253-.354-1.178-1.46-1.696-2.04Z" fill="#009d00"/></svg>
